<svg xmlns="http://www.w3.org/2000/svg" width="448" height="100" viewBox="0 0 448 100">
    <path data-name="패스 89399" d="M6.879 2.763H3.931V-12.5h2.948c4.369 0 7.4 3.132 7.4 7.633s-3.031 7.63-7.4 7.63zM1.72 4.711h5.159a9.169 9.169 0 0 0 9.554-9.58 9.169 9.169 0 0 0-9.554-9.58H1.72zm25.714-1.737c-4.264 0-7.211-3.211-7.211-7.843s2.948-7.843 7.211-7.843c4.29 0 7.238 3.211 7.238 7.843s-2.948 7.843-7.238 7.843zm-9.449-7.843c0 5.738 3.922 9.791 9.449 9.791 5.553 0 9.475-4.053 9.475-9.791s-3.922-9.791-9.475-9.791c-5.527 0-9.449 4.053-9.449 9.791zM46.594 4.9c4.527 0 7.185-3.185 7.185-7.685v-11.664h-2.211v11.685c0 3.343-1.737 5.659-4.974 5.659S41.646.579 41.646-2.764v-11.685h-2.211V-2.79c0 4.501 2.632 7.69 7.159 7.69zm22.477-19.349H56.1v1.949h10.418L56.1 2.605v2.106h12.971V2.763h-10.4l10.4-15.107zM80.256 2.974c-4.264 0-7.211-3.211-7.211-7.843s2.948-7.843 7.211-7.843c4.29 0 7.238 3.211 7.238 7.843s-2.948 7.843-7.238 7.843zm-9.448-7.843c0 5.738 3.922 9.791 9.449 9.791 5.553 0 9.475-4.053 9.475-9.791s-3.922-9.791-9.476-9.791c-5.527 0-9.448 4.053-9.448 9.791zm35.847-9.58h-2.211V.816L94.258-14.449h-2.29v19.16h2.211v-15.318l10.212 15.318h2.263zm15.37 0H110v19.16h12.028V2.763h-9.817v-6.948h8.475v-1.948h-8.475V-12.5h9.817zm19.66 0h-12.028v19.16h12.028V2.763h-9.817v-6.948h8.475v-1.948h-8.475V-12.5h9.817zm11.08 12.107v7.053h2.184V-2.5a4.8 4.8 0 0 0-4.974-5.053 4.706 4.706 0 0 0-3.421 1.79v-1.79h-2.184V4.711h2.184v-7.054a3.242 3.242 0 0 1 3.316-3.264c1.737.001 2.895 1.29 2.895 3.264zm5.635 7.053h2.211V-5.632h2.9V-7.58h-2.9v-4.237H158.4v4.237h-2.237v1.948h2.237zm11.659.105c2.9 0 4.632-1.474 5.237-2.842l-1.737-.895a3.832 3.832 0 0 1-3.5 1.816A3.774 3.774 0 0 1 166.4-.421h9.212a8.633 8.633 0 0 0-.5-3.79 5.222 5.222 0 0 0-5.053-3.343c-3.448 0-5.869 2.553-5.869 6.185-.002 3.606 2.419 6.185 5.867 6.185zM166.4-2.29a3.736 3.736 0 0 1 3.658-3.343c2.263 0 3.185 1.448 3.421 3.316zm11.08 7h2.184v-6.237a4.078 4.078 0 0 1 4.106-4.027v-2.105a4.722 4.722 0 0 0-4.106 2.132v-2.027h-2.184zm14.449-1.79a4.068 4.068 0 0 1-3.737-4.29 4.085 4.085 0 0 1 3.737-4.29c2.237 0 3.737 1.763 3.737 4.29-.001 2.554-1.501 4.291-3.738 4.291zm-5.948 7.4h2.184V2.763a5.045 5.045 0 0 0 3.843 2.106c3.421 0 5.843-2.579 5.843-6.238 0-3.632-2.421-6.211-5.843-6.211a4.86 4.86 0 0 0-3.843 2.08v-2.08h-2.185zm13.66-5.606h2.184v-6.241a4.078 4.078 0 0 1 4.106-4.027v-2.105a4.722 4.722 0 0 0-4.106 2.132v-2.027h-2.185zm8.473-12.294V4.711h2.186V-7.58zm-.237-4.764A1.285 1.285 0 0 0 209.22-11a1.279 1.279 0 0 0 1.316-1.342 1.272 1.272 0 0 0-1.316-1.316 1.279 1.279 0 0 0-1.342 1.314zm6.58 13.133-1.763 1.053a5.494 5.494 0 0 0 4.816 2.974c2.711 0 4.711-1.421 4.711-3.606 0-2.342-2.29-3.079-4.053-3.685-1.474-.5-2.737-.842-2.737-1.842 0-.895.921-1.421 2.184-1.421A2.394 2.394 0 0 1 220.037-4l1.921-.658a4.491 4.491 0 0 0-4.343-3.027c-2.448 0-4.369 1.29-4.369 3.369 0 2.342 2.369 3.079 4.053 3.658 1.369.474 2.737.869 2.737 1.869 0 1.053-1.053 1.684-2.527 1.684a3.605 3.605 0 0 1-3.052-2.106zM229.8 4.816c2.9 0 4.632-1.474 5.237-2.842l-1.737-.895a3.832 3.832 0 0 1-3.5 1.816 3.774 3.774 0 0 1-3.658-3.316h9.212a8.634 8.634 0 0 0-.5-3.79 5.222 5.222 0 0 0-5.054-3.343c-3.448 0-5.869 2.553-5.869 6.185.001 3.606 2.423 6.185 5.869 6.185zm-3.657-7.106a3.736 3.736 0 0 1 3.657-3.342c2.263 0 3.185 1.448 3.421 3.316zm41.216-12.159h-2.29L260.726.816l-4.448-15.239h-2.29L249.62.816l-4.474-15.265h-2.29l5.659 19.16h2.211l4.422-15.239L259.7 4.711h2.184zm5.659 17.371c-2.185 0-3.658-1.711-3.658-4.264s1.5-4.29 3.658-4.29c2.184 0 3.685 1.763 3.685 4.29s-1.503 4.263-3.686 4.263zm-5.843-4.264c0 3.606 2.421 6.211 5.843 6.211 3.448 0 5.9-2.606 5.9-6.211 0-3.632-2.448-6.238-5.9-6.238-3.418 0-5.844 2.605-5.844 6.238zm13.5 6.053h2.185v-6.238a4.078 4.078 0 0 1 4.106-4.027v-2.105a4.722 4.722 0 0 0-4.106 2.132v-2.027h-2.185zm10.66-18.581h-2.184V4.711h2.184V1.526l1.658-1.974 3.685 5.159h2.685l-4.816-6.817 4.737-5.448h-2.948l-5 5.817zM301.784.789l-1.763 1.053a5.494 5.494 0 0 0 4.816 2.974c2.711 0 4.711-1.421 4.711-3.606 0-2.342-2.29-3.079-4.053-3.685-1.474-.5-2.737-.842-2.737-1.842 0-.895.921-1.421 2.184-1.421A2.394 2.394 0 0 1 307.364-4l1.921-.658a4.491 4.491 0 0 0-4.343-3.027c-2.448 0-4.369 1.29-4.369 3.369 0 2.342 2.369 3.079 4.053 3.658 1.369.474 2.737.869 2.737 1.869 0 1.053-1.053 1.684-2.527 1.684a3.605 3.605 0 0 1-3.052-2.106zm16.081 2.132a4.068 4.068 0 0 1-3.737-4.29 4.085 4.085 0 0 1 3.737-4.29c2.237 0 3.737 1.763 3.737 4.29-.002 2.553-1.502 4.29-3.737 4.29zm-5.948 7.4h2.183V2.763a5.045 5.045 0 0 0 3.843 2.106c3.422 0 5.843-2.579 5.843-6.238 0-3.632-2.421-6.211-5.843-6.211A4.861 4.861 0 0 0 314.1-5.5v-2.08h-2.184zm19.134-5.448a4.572 4.572 0 0 0 3.816-2.132v1.97h2.184V-7.554h-2.184v2.106a4.815 4.815 0 0 0-3.816-2.079c-3.4 0-5.817 2.579-5.817 6.211 0 3.606 2.422 6.185 5.817 6.185zm-3.632-6.185c0-2.553 1.527-4.29 3.711-4.29a4.073 4.073 0 0 1 3.764 4.29 4.048 4.048 0 0 1-3.764 4.264c-2.185-.004-3.711-1.768-3.711-4.268zm17.423 4.053a3.843 3.843 0 0 1-3.948-4.106 3.843 3.843 0 0 1 3.948-4.106 4.309 4.309 0 0 1 3.058 1.339l1.579-1.448a6.816 6.816 0 0 0-4.527-2 5.977 5.977 0 0 0-6.238 6.211 5.992 5.992 0 0 0 6.238 6.211 6.787 6.787 0 0 0 4.527-1.974L347.9 1.395a4.309 4.309 0 0 1-3.058 1.342zm11.265 2.079c2.9 0 4.632-1.474 5.237-2.842l-1.737-.895a3.832 3.832 0 0 1-3.5 1.816 3.774 3.774 0 0 1-3.658-3.316h9.212a8.634 8.634 0 0 0-.5-3.79 5.222 5.222 0 0 0-5.053-3.343c-3.448 0-5.869 2.553-5.869 6.185-.001 3.602 2.42 6.181 5.868 6.181zm-3.659-7.11a3.736 3.736 0 0 1 3.658-3.343c2.263 0 3.185 1.448 3.422 3.316zm18.713 1.842-1.869 1c1.579 2.764 3.711 4.316 6.5 4.369 3.922.053 6.4-2.079 6.4-5.238 0-6.659-9.843-4.685-9.843-9.528 0-1.842 1.579-2.9 3.79-2.869a3.918 3.918 0 0 1 3.737 2.974l1.974-.684a5.809 5.809 0 0 0-5.685-4.237c-3.421-.026-6 1.737-6 4.816 0 6.659 9.843 4.606 9.843 9.5 0 2.053-1.605 3.369-4.185 3.316-1.977.003-3.662-1.418-4.662-3.419zm18.95 5.264c2.9 0 4.632-1.474 5.237-2.842l-1.737-.895a3.832 3.832 0 0 1-3.5 1.816 3.774 3.774 0 0 1-3.658-3.316h9.212a8.633 8.633 0 0 0-.5-3.79 5.222 5.222 0 0 0-5.053-3.343c-3.448 0-5.869 2.553-5.869 6.185-.001 3.606 2.42 6.185 5.868 6.185zm-3.658-7.106a3.736 3.736 0 0 1 3.658-3.343c2.263 0 3.185 1.448 3.422 3.316zm11.08 7h2.184v-6.237a4.078 4.078 0 0 1 4.106-4.027v-2.105a4.722 4.722 0 0 0-4.106 2.132v-2.027h-2.184zm19.818-12.264h-2.421l-3.711 9.291-3.711-9.291h-2.4l5.106 12.265h2zm1.79-.026V4.711h2.185V-7.58zm-.237-4.764A1.285 1.285 0 0 0 420.246-11a1.279 1.279 0 0 0 1.316-1.342 1.272 1.272 0 0 0-1.316-1.316 1.279 1.279 0 0 0-1.346 1.314zM429.3 2.737a3.843 3.843 0 0 1-3.948-4.106 3.843 3.843 0 0 1 3.948-4.106 4.309 4.309 0 0 1 3.053 1.342l1.579-1.448a6.816 6.816 0 0 0-4.527-2 5.977 5.977 0 0 0-6.238 6.211 5.992 5.992 0 0 0 6.238 6.211 6.787 6.787 0 0 0 4.527-1.974l-1.579-1.474a4.309 4.309 0 0 1-3.053 1.344zm11.265 2.079c2.9 0 4.632-1.474 5.237-2.842l-1.737-.895a3.832 3.832 0 0 1-3.5 1.816 3.774 3.774 0 0 1-3.658-3.316h9.212a8.634 8.634 0 0 0-.5-3.79 5.222 5.222 0 0 0-5.053-3.343c-3.448 0-5.869 2.553-5.869 6.185.003 3.606 2.42 6.185 5.868 6.185zm-3.659-7.106a3.736 3.736 0 0 1 3.658-3.343c2.263 0 3.185 1.448 3.422 3.316z" transform="translate(-.484 88.794)" style="fill:#000"/>
    <path data-name="패스 89384" d="M47.71-13.569H27.052v4.7h15.087C41.388.892 35.19 5.525 26.176 5.838c-10.141 0-17.09-7.512-17.09-18.467 0-10.893 6.949-18.4 17.09-18.4 10.7 0 14.336 8.451 14.336 8.451l4.82-2.316s-4.946-11.023-19.156-11.023c-13.271 0-22.6 9.641-22.6 23.287 0 13.71 9.328 23.35 22.6 23.35 12.207-.25 20.283-6.949 21.472-19.844a22.558 22.558 0 0 0 .062-4.445zm36.121-21.91H52.468v45.7h31.363V5.337H57.977v-16.214h22.661v-4.883H57.977V-30.6h25.854zm44.384 0h-5.509V1.143l-26.48-36.622h-5.759v45.7h5.509V-26.4l26.48 36.621h5.759zm38.1 0h-6.26l-19.031 45.7h5.947l5.389-12.834h21.472l5.258 12.833h5.947zM154.3-7.434l8.889-21.159 8.639 21.159zm36.5-28.045v45.7h5.509v-45.7z" transform="translate(23.148 40.013)" style="fill:#000"/>
    <path data-name="패스 89388" d="M6055.015 20206.463a24.987 24.987 0 0 1-17.272-8.35l-.227-.266 7.541-5.885.206.254c2.724 3.262 6.789 5.59 9.888 5.65h.171c4.735 0 8.088-2.367 8.144-5.754.02-1.328-.746-2.359-2.4-3.252a33.832 33.832 0 0 0-6.152-2.141c-7-1.992-15.713-4.467-15.528-14.51a12.283 12.283 0 0 1 4.742-9.615 16.091 16.091 0 0 1 5.215-2.723 21.965 21.965 0 0 1 6.6-.959h.493a20.521 20.521 0 0 1 8.376 2.148 20.264 20.264 0 0 1 6.871 5.291l.212.268-7.35 5.822-.212-.258c-2.114-2.652-5.495-4.607-8.034-4.67h-.171c-3.961 0-6.734 2.006-6.734 4.889v.006c-.068 3 4.044 4.3 8.814 5.813 6.864 2.17 15.417 4.871 15.267 14.09-.123 8.334-7.513 14.158-17.963 14.158a8.187 8.187 0 0 1-.497-.006zm-38.261-.244-11.045-31.578-9.848 31.578h-8.533l-15.959-47.244h10.546l9.689 30.148 8.671-30.084h10.7l9.123 29.98 7.623-30.045h10.54l-12.962 47.244zm-82.414 0v-47.244h34.895v8.666h-24.883v9.949h21.625v8.666h-21.625v11.3h24.883v8.66zm-43.742 0v-47.244h17.232a25.781 25.781 0 0 1 9.505 1.742 21.543 21.543 0 0 1 12.317 12.344 27.041 27.041 0 0 1 0 19.08 21.543 21.543 0 0 1-12.317 12.344 25.778 25.778 0 0 1-9.505 1.734zm10.012-38.4v29.557l7.042.064c8.464 0 13.727-5.689 13.727-14.838s-5.263-14.84-13.735-14.84z" transform="translate(-5657.035 -20154.819)" style="fill:#000"/>
</svg>
