<svg xmlns="http://www.w3.org/2000/svg" width="132" height="18" viewBox="0 0 132 18">
    <path data-name="패스 89386" d="M17.951-28.638h-6.728v1.529h4.914c-.245 3.181-2.263 4.689-5.2 4.791-3.3 0-5.566-2.447-5.566-6.015 0-3.548 2.263-5.994 5.566-5.994a5.035 5.035 0 0 1 4.669 2.752l1.57-.754a6.777 6.777 0 0 0-6.239-3.588c-4.322 0-7.36 3.14-7.36 7.585 0 4.465 3.038 7.6 7.36 7.6 3.976-.082 6.606-2.263 6.993-6.463a7.347 7.347 0 0 0 .021-1.443zm11.764-7.136H19.5v14.884h10.215v-1.59h-8.42v-5.281h7.381v-1.59h-7.381v-4.832h8.42zm14.456 0h-1.794v11.927l-8.625-11.927h-1.876v14.884h1.794v-11.928l8.624 11.927h1.876zm14.129 0h-2.039l-6.2 14.884H52l1.753-4.18h6.993l1.713 4.18H64.4zm-3.915 9.134 2.9-6.891 2.814 6.891zm11.887-9.134v14.884h1.794v-14.884z" transform="translate(-2.577 37.016)" style="fill:#000"/>
    <path data-name="패스 89387" d="m8.313-23.047-2.4-.02v-9.826l2.4-.02c2.816 0 4.574 1.9 4.574 4.933s-1.758 4.933-4.574 4.933zM2.88-20.411h5.492a7.241 7.241 0 0 0 7.55-7.57 7.241 7.241 0 0 0-7.55-7.57H2.88zM28.225-35.55H17.1v15.139h11.125v-2.6h-8.089V-26.9h7.03v-2.6h-7.03v-3.455h8.089zm22.409 0h-3.2l-2.552 10.066-3.056-10.046h-3.315l-2.9 10.046-3.232-10.066h-3.2L34.3-20.411h2.616l3.275-10.506 3.675 10.506h2.614zm2.337 10.765-2.277 1.778a8 8 0 0 0 5.532 2.676c3.415.06 5.852-1.8 5.892-4.494.08-4.993-7.889-3.935-7.829-6.471 0-1.019.979-1.718 2.357-1.7a4.025 4.025 0 0 1 2.7 1.558l2.217-1.758a6.886 6.886 0 0 0-4.873-2.377c-3.156-.06-5.393 1.678-5.433 4.214-.1 5.373 7.869 3.915 7.829 6.471-.02 1.178-1.178 2-2.816 1.977a5.005 5.005 0 0 1-3.299-1.874z" transform="translate(68.982 36.814)" style="stroke:#fff;stroke-width:.1px;fill:#000"/>
</svg>
